<svg xmlns="http://www.w3.org/2000/svg" viewBox="0 0 120 120">
  <rect x="15" y="55" width="90" height="40" rx="6" fill="#1f2937"/>
  <g fill="#60a5fa">
    <rect x="20" y="60" width="20" height="15" rx="2"/>
    <rect x="42" y="60" width="20" height="15" rx="2"/>
    <rect x="64" y="60" width="20" height="15" rx="2"/>
    <rect x="86" y="60" width="14" height="15" rx="2"/>
    <rect x="20" y="77" width="20" height="15" rx="2"/>
    <rect x="42" y="77" width="20" height="15" rx="2"/>
    <rect x="64" y="77" width="20" height="15" rx="2"/>
    <rect x="86" y="77" width="14" height="15" rx="2"/>
  </g>
  <circle cx="26" cy="26" r="12" fill="#facc15"/>
  <g stroke="#facc15" stroke-width="2">
    <line x1="26" y1="6" x2="26" y2="0"/><line x1="26" y1="46" x2="26" y2="54"/>
    <line x1="6" y1="26" x2="0" y2="26"/><line x1="46" y1="26" x2="54" y2="26"/>
    <line x1="10" y1="10" x2="5" y2="5"/><line x1="42" y1="42" x2="47" y2="47"/>
    <line x1="42" y1="10" x2="47" y2="5"/><line x1="10" y1="42" x2="5" y2="47"/>
  </g>
</svg>